<?xml version="1.0" encoding="utf-8"?>
<!-- Generator: Adobe Illustrator 25.0.0, SVG Export Plug-In . SVG Version: 6.00 Build 0)  -->
<svg version="1.1" xmlns="http://www.w3.org/2000/svg" xmlns:xlink="http://www.w3.org/1999/xlink" x="0px" y="0px"
	 viewBox="0 0 1000 1000" style="enable-background:new 0 0 1000 1000;" xml:space="preserve">
<style type="text/css">
	.st0{fill:#F0F8FF;}
</style>
<g id="Your_design">
</g>
<g id="Guides">
	<g>
		<g>
			<path class="st0" d="M635.98,624.75c0.58,1.26,1.2,2.51,1.86,3.73L635.98,624.75z"/>
			<g>
				<g>
					<path class="st0" d="M754.89,572.2L754.89,572.2l-0.01-0.01c-0.96-2.27-2.09-4.46-3.29-6.59l-95.96-192.17l-0.05,0.02
						c-10.67-21.3-32.64-35.95-58.09-35.95c-35.9,0-65,29.1-65,65c0,10.46,2.53,20.3,6.91,29.05l-0.05,0.02l96.61,193.17
						c-0.2-0.44-0.38-0.89-0.57-1.33c0.75,1.72,1.55,3.42,2.44,5.06l0,0c0.89,1.64,1.87,3.22,2.9,4.77
						c0.27,0.41,0.55,0.81,0.83,1.21c0.93,1.35,1.91,2.66,2.94,3.93c0.15,0.19,0.29,0.38,0.44,0.57c1.17,1.41,2.42,2.76,3.7,4.07
						c0.33,0.34,0.67,0.66,1.01,0.99c1.1,1.07,2.24,2.11,3.41,3.1c0.28,0.23,0.54,0.48,0.82,0.71c1.42,1.16,2.89,2.25,4.4,3.29
						c0.36,0.24,0.72,0.47,1.09,0.71c1.27,0.83,2.57,1.62,3.89,2.37c0.38,0.21,0.76,0.44,1.14,0.64c1.63,0.87,3.29,1.68,5,2.41
						c0.33,0.14,0.68,0.27,1.02,0.4c1.45,0.59,2.92,1.13,4.42,1.62c0.46,0.15,0.91,0.3,1.38,0.44c1.81,0.54,3.64,1.03,5.5,1.41
						c0.24,0.05,0.49,0.08,0.73,0.13c1.66,0.33,3.35,0.58,5.06,0.77c0.51,0.06,1.03,0.11,1.54,0.16c1.95,0.18,3.92,0.3,5.92,0.3
						c35.9,0,65-29.1,65-65C760,588.53,758.18,579.98,754.89,572.2z M633.02,617.1c0.56,1.77,1.2,3.5,1.9,5.2
						C634.22,620.6,633.58,618.87,633.02,617.1z M630,597.5c0,2.01,0.12,3.98,0.3,5.94C630.12,601.48,630,599.51,630,597.5z
						 M630.42,604.69c0.21,1.9,0.49,3.77,0.86,5.62C630.91,608.46,630.63,606.59,630.42,604.69z M631.48,611.24
						c0.36,1.68,0.79,3.34,1.28,4.97C632.27,614.58,631.85,612.92,631.48,611.24z"/>
				</g>
			</g>
			<g>
				<path class="st0" d="M460.63,373.43l-0.05,0.02c-10.67-21.3-32.64-35.95-58.09-35.95c-25.43,0-47.4,14.64-58.07,35.93h-0.07
					c0,0-98.16,196.29-99.08,198.42l-0.11,0.23h0c-3.47,8.17-5.33,17.18-5.16,26.66c0.63,33.85,28.16,62.17,61.98,63.7
					C339.26,664.11,370,634.4,370,597.5c0-27.52-17.11-51.01-41.27-60.49c-9.1-3.57-13.25-14.1-8.88-22.85l25.78-51.62
					c2.93-5.86,11.29-5.86,14.22,0c0,0,82.33,164.71,82.99,165.93c0,0,0,0.01,0,0.01c12.04,22.16,36.58,36.53,64.15,33.65
					c30.61-3.19,55.19-28.4,57.77-59.07c1.15-13.69-2-26.55-8.17-37.48L460.63,373.43z"/>
			</g>
		</g>
	</g>
</g>
</svg>
